<svg width="44" height="44" viewBox="0 0 44 44" fill="none" xmlns="http://www.w3.org/2000/svg">
<rect x="0.5" y="0.5" width="43" height="43" rx="21.5" fill="#238D88"/>
<rect x="0.5" y="0.5" width="43" height="43" rx="21.5" stroke="black"/>
<path d="M24.3829 12.167C24.8133 12.167 25.2358 12.2869 25.6054 12.5142C25.9751 12.7414 26.2782 13.0674 26.4826 13.4576L27.0624 14.5639C27.2669 14.9541 27.57 15.2801 27.9396 15.5073C28.3093 15.7345 28.7317 15.8545 29.1621 15.8545H31.5446C32.1774 15.8545 32.7843 16.1135 33.2318 16.5745C33.6792 17.0355 33.9306 17.6608 33.9306 18.3128V29.3753C33.9306 30.0273 33.6792 30.6526 33.2318 31.1136C32.7843 31.5747 32.1774 31.8337 31.5446 31.8337H12.4563C11.8235 31.8337 11.2166 31.5747 10.7692 31.1136C10.3217 30.6526 10.0703 30.0273 10.0703 29.3753V18.3128C10.0703 17.6608 10.3217 17.0355 10.7692 16.5745C11.2166 16.1135 11.8235 15.8545 12.4563 15.8545H14.8388C15.2688 15.8545 15.6908 15.7348 16.0602 15.5081C16.4296 15.2813 16.7326 14.9559 16.9373 14.5663L17.5207 13.4552C17.7254 13.0655 18.0284 12.7402 18.3978 12.5134C18.7672 12.2867 19.1892 12.167 19.6192 12.167H24.3829Z" stroke="white" stroke-width="2" stroke-linecap="round" stroke-linejoin="round"/>
<path d="M22.0005 26.917C23.9771 26.917 25.5795 25.266 25.5795 23.2295C25.5795 21.1929 23.9771 19.542 22.0005 19.542C20.0238 19.542 18.4214 21.1929 18.4214 23.2295C18.4214 25.266 20.0238 26.917 22.0005 26.917Z" stroke="white" stroke-width="2" stroke-linecap="round" stroke-linejoin="round"/>
</svg>
